<mxfile host="app.diagrams.net" agent="Mozilla/5.0 (Windows NT 10.0; Win64; x64; rv:131.0) Gecko/20100101 Firefox/131.0" version="24.7.8">
  <diagram name="第 1 页" id="Aijk_4i_gW6au0dGyRl7">
    <mxGraphModel dx="521" dy="279" grid="1" gridSize="5" guides="1" tooltips="1" connect="1" arrows="1" fold="1" page="1" pageScale="1" pageWidth="827" pageHeight="1169" math="0" shadow="0">
      <root>
        <mxCell id="0" />
        <mxCell id="1" parent="0" />
        <mxCell id="97F8Frwu8zPg8aSDnbAA-4" style="edgeStyle=orthogonalEdgeStyle;rounded=0;orthogonalLoop=1;jettySize=auto;html=1;endArrow=block;endFill=1;" edge="1" parent="1" source="97F8Frwu8zPg8aSDnbAA-1" target="97F8Frwu8zPg8aSDnbAA-3">
          <mxGeometry relative="1" as="geometry" />
        </mxCell>
        <mxCell id="97F8Frwu8zPg8aSDnbAA-1" value="开始" style="rounded=1;whiteSpace=wrap;html=1;fontFamily=黑体;fontSize=12;" vertex="1" parent="1">
          <mxGeometry x="80" y="80" width="80" height="40" as="geometry" />
        </mxCell>
        <mxCell id="97F8Frwu8zPg8aSDnbAA-3" value="参数配置" style="rounded=0;whiteSpace=wrap;html=1;" vertex="1" parent="1">
          <mxGeometry x="80" y="140" width="80" height="40" as="geometry" />
        </mxCell>
        <mxCell id="97F8Frwu8zPg8aSDnbAA-5" value="&lt;div&gt;坐标（经纬坐标）&lt;/div&gt;&lt;div&gt;转弯半径（!）&lt;/div&gt;&lt;div&gt;行间距：割幅&lt;/div&gt;&lt;div&gt;螺旋层数（螺旋式覆盖）&lt;/div&gt;&lt;div&gt;最小跨行（往复式覆盖）&lt;/div&gt;&lt;div&gt;纬度值：校正&lt;br&gt;&lt;/div&gt;" style="text;html=1;align=center;verticalAlign=middle;whiteSpace=wrap;rounded=0;strokeColor=default;" vertex="1" parent="1">
          <mxGeometry x="190" y="105" width="195" height="110" as="geometry" />
        </mxCell>
      </root>
    </mxGraphModel>
  </diagram>
</mxfile>
